<svg xmlns="http://www.w3.org/2000/svg" width="40" height="40" viewBox="0 0 40 40">
  <rect width="40" height="40" rx="4" fill="#161a1c"/>
  <path d="M15,36 V22 C15,18 15.5,13 17,10.5 C17.8,9.3 18.8,10 18.8,11.5 V18 L19.6,18 V9.5 C19.6,8.2 20.9,8.2 21.2,9.5 V18 L22,18 V10 C22,8.7 23.3,8.7 23.6,10 V18 L24.4,18 V11.5 C24.4,10.2 25.6,10.2 26,11.5 V22 C26,25.5 25.2,28 23.5,29.8 V36 Z"
        fill="#8a9098" stroke="#3a3e42" stroke-width="1.2"/>
  <path d="M15,26.5 H26 V28.5 H15 Z" fill="#5a6066" opacity="0.6"/>
</svg>
