<svg xmlns="http://www.w3.org/2000/svg" width="128" height="128" viewBox="0 0 512 512">
<g transform="translate(0,512) scale(0.1,-0.1)" fill="#000000" stroke="none">
<path d="M2328 5026 c-36 -13 -81 -34 -100 -46 -18 -13 -187 -176 -375 -363
l-341 -340 -44 35 c-63 50 -89 65 -157 88 -75 25 -204 27 -282 4 -199 -58
-330 -236 -330 -450 0 -120 30 -203 109 -302 l35 -44 -345 -346 c-190 -191
-354 -363 -366 -382 -60 -103 -81 -273 -46 -391 34 -116 61 -148 453 -540 354
-355 380 -379 453 -414 143 -70 297 -71 438 -3 57 27 106 72 415 379 l350 349
1060 -1058 c1051 -1050 1061 -1059 1135 -1092 65 -30 88 -35 171 -38 146 -6
246 29 345 120 163 150 193 416 69 602 -19 28 -502 519 -1074 1091 l-1041
1040 349 350 c307 308 352 358 379 415 68 141 67 295 -3 438 -35 73 -59 99
-414 453 -392 392 -424 419 -540 453 -84 25 -221 21 -303 -8z m-1034 -786 c22
-11 55 -31 71 -44 l30 -25 -223 -223 -223 -223 -25 30 c-50 62 -68 114 -68
200 0 116 42 196 134 260 83 57 216 68 304 25z m2507 -2477 c824 -826 1051
-1058 1069 -1096 63 -134 18 -302 -102 -385 -60 -41 -112 -56 -190 -55 -138 1
-73 -58 -1233 1103 l-1040 1040 220 220 c121 121 222 220 225 220 3 0 476
-471 1051 -1047z"/>
</g>
</svg>
