<svg xmlns="http://www.w3.org/2000/svg" width="40" height="40" viewBox="0 0 40 40">
  <rect width="40" height="40" rx="4" fill="#14161a"/>
  <path d="M8,10 L13,7 L13,15 L8,17 Z" fill="#5c6570" stroke="#2a2f36" stroke-width="1"/>
  <path d="M32,10 L27,7 L27,15 L32,17 Z" fill="#5c6570" stroke="#2a2f36" stroke-width="1"/>
  <path d="M20,4 L30,8 V19 C30,28 25,34 20,37 C15,34 10,28 10,19 V8 Z" fill="#4a5058" stroke="#20242a" stroke-width="1.5"/>
  <path d="M20,7 L27,10.5 V19 C27,26 23.5,31 20,33.5 C16.5,31 13,26 13,19 V10.5 Z" fill="#5e6570" stroke="#2c3138" stroke-width="1"/>
  <line x1="14" y1="17" x2="26" y2="18" stroke="#818a94" stroke-width="0.8" opacity="0.6"/>
  <line x1="14" y1="23" x2="26" y2="24" stroke="#818a94" stroke-width="0.8" opacity="0.6"/>
</svg>
