<svg xmlns="http://www.w3.org/2000/svg" viewBox="0 0 360 104" fill="#ffffff">
  <rect x="6" y="20" width="348" height="18" rx="7"/>
  <rect x="165" y="13" width="30" height="32" rx="5"/>
  <path d="M58 38 h64 l-7 14 q-25 9 -50 0 z"/>
  <rect x="60" y="44" width="60" height="50" rx="10"/>
  <rect x="84" y="58" width="12" height="9" rx="2"/>
  <path d="M150 42 h60 l-7 14 q-23 8 -46 0 z"/>
  <rect x="152" y="48" width="56" height="50" rx="10"/>
  <rect x="174" y="62" width="12" height="9" rx="2"/>
  <path d="M238 38 h64 l-7 14 q-25 9 -50 0 z"/>
  <rect x="240" y="44" width="60" height="50" rx="10"/>
  <rect x="264" y="58" width="12" height="9" rx="2"/>
</svg>
